<?xml version="1.0" encoding="UTF-8" standalone="no"?>
<!-- Created with Inkscape (http://www.inkscape.org/) -->

<svg
   width="1766.4301"
   height="548.70038"
   viewBox="0 0 1766.4301 548.70038"
   version="1.1"
   id="svg1"
   xml:space="preserve"
   sodipodi:docname="mcn-text.svg"
   xmlns:inkscape="http://www.inkscape.org/namespaces/inkscape"
   xmlns:sodipodi="http://sodipodi.sourceforge.net/DTD/sodipodi-0.dtd"
   xmlns:xlink="http://www.w3.org/1999/xlink"
   xmlns="http://www.w3.org/2000/svg"
   xmlns:svg="http://www.w3.org/2000/svg"><sodipodi:namedview
     id="namedview1"
     pagecolor="#505050"
     bordercolor="#eeeeee"
     borderopacity="1"
     inkscape:showpageshadow="0"
     inkscape:pageopacity="0"
     inkscape:pagecheckerboard="0"
     inkscape:deskcolor="#505050"><inkscape:page
       x="0"
       y="0"
       width="1766.4301"
       height="548.70038"
       id="page2"
       margin="0"
       bleed="0" /></sodipodi:namedview><defs
     id="defs1"><linearGradient
       id="linearGradient25"><stop
         style="stop-color:#e1ce7d;stop-opacity:1;"
         offset="0"
         id="stop25" /><stop
         style="stop-color:#d6a659;stop-opacity:1;"
         offset="1"
         id="stop26" /></linearGradient><linearGradient
       id="linearGradient3"><stop
         style="stop-color:#e2d280;stop-opacity:1;"
         offset="0"
         id="stop3" /><stop
         style="stop-color:#d6a659;stop-opacity:1;"
         offset="1"
         id="stop4" /></linearGradient><radialGradient
       xlink:href="#linearGradient3"
       id="radialGradient4-1"
       cx="256.71457"
       cy="234.82265"
       fx="256.71457"
       fy="234.82265"
       r="222.23204"
       gradientTransform="matrix(1.2654515,0,0,0.87224034,94.561625,1586.7509)"
       gradientUnits="userSpaceOnUse" /><linearGradient
       xlink:href="#linearGradient25"
       id="linearGradient26"
       x1="886.57501"
       y1="1198.8909"
       x2="1054.5004"
       y2="1198.8909"
       gradientUnits="userSpaceOnUse"
       gradientTransform="matrix(3.7705997,0,0,3.7705997,-2492.4894,-2728.9652)" /></defs><g
     id="layer2"
     transform="translate(0,-1496.8932)"><g
       id="g26"
       transform="translate(12.795742,-20.329265)"><path
         id="path3-5"
         style="fill:url(#radialGradient4-1);stroke:none;stroke-width:18.4528;stroke-dasharray:none;stroke-opacity:1"
         d="m 419.42145,1597.7329 c -6.03766,9.5947 -7.75697,22.3361 -13.09937,32.5533 -20.83597,39.8478 -46.91893,78.8447 -30.58047,125.6917 8.88827,25.4852 27.17569,41.3491 42.77558,62.3937 11.70661,-12.0854 23.72216,-26.2087 32.36602,-40.6917 37.73219,-63.2203 -5.73595,-122.1838 -31.46176,-179.947 z m -78.67034,16.2766 c -4.42615,5.6237 -5.26483,15.1546 -8.91717,21.7022 -5.72444,10.2624 -13.04699,19.6767 -17.24798,30.7448 -10.72178,28.2475 -5.09449,60.0479 11.10541,85 5.41569,8.3417 12.1391,20.9936 21.38954,25.3193 2.96128,-6.8829 9.27738,-22.48 7.71266,-29.8405 -1.0448,-4.9149 -5.71548,-9.277 -8.19657,-13.5639 -4.09928,-7.0828 -7.41623,-15.4878 -9.05671,-23.5107 -3.85314,-18.8437 1.89734,-35.072 8.63635,-52.4468 l 20.79792,10.851 c 0.75896,-6.0003 2.17091,-12.0009 1.72728,-18.0851 -1.29025,-17.6951 -15.19071,-26.3622 -27.95073,-36.1703 z m 161.86195,0 c -24.97832,5.7291 -34.29439,32.8748 -28.03196,55.1597 l 19.89364,-11.7553 c 6.47474,16.7843 12.03458,33.5077 8.12421,51.5427 -1.83106,8.4448 -5.06397,16.8333 -9.18919,24.4148 -2.48612,4.5692 -6.94597,9.2357 -7.77094,14.4682 -1.25438,7.9559 4.37574,21.8603 7.93168,28.9362 31.16087,-25.1445 46.60114,-72.5105 32.82875,-110.3193 -6.88181,-18.8925 -23.34111,-30.8886 -23.78619,-52.447 z m -84.09587,48.8299 c 20.6161,25.5184 24.41022,62.5262 13.51616,92.2342 -3.15551,8.6051 -7.23463,20.27 -14.42041,26.2234 -5.05171,-9.0737 -11.14443,-17.254 -14.74362,-27.1277 -12.16046,-33.36 -1.50779,-61.9647 15.64787,-91.3299 z m 196.23783,59.9264 c -5.98527,-0.1773 -11.97513,0.082 -18.09925,1.0562 -48.74318,7.7507 -56.56673,56.0595 -70.25298,94.5496 -7.51528,21.1351 -18.26441,40.5041 -32.48436,57.8724 -10.15316,12.4011 -21.5826,23.5742 -34.7097,32.8058 -11.14913,7.8407 -26.04371,15.8715 -30.64933,29.5879 -2.42409,7.2192 -0.16089,14.5012 0.80887,21.7021 9.77003,-1.5074 20.33813,-14.4985 28.9362,-19.8353 38.95338,-24.1781 69.5426,-55.3513 85.2792,-99.5266 11.19834,-31.4356 8.23202,-67.8905 42.22101,-84.7758 5.49795,-2.7312 11.18754,-5.1669 17.18088,-6.554 -2.85777,15.3836 -3.30044,30.9771 -7.62084,46.1171 -8.16979,28.6294 -23.24829,51.5145 -39.40052,75.9575 9.09666,-3.0864 18.84139,-11.8743 26.22345,-18.0126 15.03112,-12.4989 30.20347,-28.7577 37.69621,-47.0939 7.4962,-18.3448 6.73998,-37.6912 8.57456,-56.9681 0.81801,-8.5955 3.52243,-16.886 4.36763,-25.3193 -6.105,-0.7715 -12.08573,-1.3856 -18.07103,-1.563 z M 220.9,1723.105 c -3.89236,-0.013 -7.74931,0.2788 -11.12836,1.4764 -4.24059,1.503 -1.04881,6.706 -0.39914,9.6943 2.08948,9.6113 1.31836,20.0519 1.98867,29.8405 0.77603,11.3326 0.40136,22.4646 4.02324,33.4575 9.05309,27.4774 39.22901,61.4793 66.59001,71.4362 -4.40402,-7.6276 -10.80728,-13.9088 -15.08976,-21.7022 -16.2993,-29.6614 -27.76209,-64.6362 -29.2188,-98.5639 6.09821,1.4114 11.67758,4.0334 17.18085,6.9692 35.17732,18.765 29.4076,57.0937 43.68692,88.882 10.50232,23.3799 22.76621,47.7636 41.39448,65.8572 13.77627,13.3806 30.01918,23.0122 46.03585,33.3338 7.70498,4.9652 14.31075,12.8565 22.6064,16.5538 0.43235,-10.0678 3.36262,-20.3045 -1.37404,-29.8403 -5.32948,-10.7295 -18.1824,-16.216 -27.56216,-22.7938 -12.41043,-8.7029 -23.44876,-19.6094 -32.85703,-31.4617 -9.78868,-12.3316 -19.0562,-25.4172 -25.64061,-39.7873 -17.82142,-38.8946 -19.93755,-95.3887 -68.0983,-110.2963 -6.93984,-2.1482 -13.5798,-2.7358 -20.79792,-2.7358 -3.52043,10e-5 -7.44791,-0.3093 -11.3403,-0.3196 z m 112.61705,68.1389 c -1.3717,5.8052 1.21046,15.139 3.02361,20.7979 8.96946,27.9937 38.32142,40.5371 55.74956,62.3936 10.27324,12.8838 14.23315,30.2076 24.41847,42.5001 0.87293,-5.1591 0,-10.9861 0,-16.2766 0,-44.8317 -31.14602,-68.6854 -64.20225,-93.4775 -6.61725,-4.9629 -12.28005,-11.2114 -18.98939,-15.9375 z m -144.51857,0.7206 c -17.17017,-0.9265 -38.22329,9.1122 -50.80088,16.4602 6.72979,23.3608 23.113,50.4657 46.1171,60.2814 9.08731,3.8776 19.38984,3.0528 28.93622,4.8252 v 0.9041 l -35.26601,25.3193 c 2.03182,7.2388 10.68463,13.933 16.27662,18.7192 16.91837,14.4805 40.87763,18.661 62.39372,14.332 21.33129,-4.2918 39.32452,-13.839 61.48943,-9.5405 -1.86097,-3.9907 -4.99816,-6.8733 -8.13831,-9.9327 -26.55208,-25.8689 -56.89675,5.3531 -86.80864,-5.6588 -11.00772,-4.0524 -7.45161,-10.2553 0,-16.5644 9.85562,-8.3444 23.34842,-14.0418 36.17026,-15.7697 v -0.9043 c -9.9862,-6.8207 -17.28713,-17.6521 -28.93619,-21.9635 -12.37716,-4.5809 -27.46686,-1.533 -38.88304,-8.7494 -3.14922,-1.9907 -6.01552,-4.5914 -8.5092,-7.3472 -1.79039,-1.9785 -3.48341,-4.0639 -5.0158,-6.2485 -6.07844,-8.6658 -2.08362,-11.2598 7.19521,-12.4 11.07289,-1.3606 20.88733,1.9083 31.64896,3.3574 -0.64364,-4.3584 -2.10664,-8.6034 -3.82718,-12.6596 -4.83657,-11.4018 -13.74017,-15.9044 -24.04227,-16.4602 z m 314.51884,0.1836 c -8.58579,4.2768 -15.81804,12.0031 -23.51068,17.7478 -22.54005,16.8326 -43.2894,33.6096 -53.30345,60.9225 -3.51347,9.5829 -9.07038,29.6469 -2.76045,38.883 8.37692,-17.6785 16.55172,-33.3691 30.64052,-47.3375 21.3018,-21.1196 48.84066,-36.309 48.93406,-70.2158 z m 152.58802,0.1996 c -15.38289,-0.574 -28.72908,5.8689 -32.32189,26.0239 9.86317,-1.8323 19.9157,-2.575 29.84049,-0.8284 2.73618,0.4816 8.52499,1.009 9.02138,4.5672 0.63012,4.5168 -6.24978,11.1375 -8.84477,14.3463 -2.23698,2.7661 -4.55472,5.604 -7.41244,7.7603 -6.36614,4.804 -15.98907,3.8188 -23.5089,5.1254 -16.09983,2.7971 -35.13277,11.1037 -42.50007,26.9016 12.19345,1.6421 25.73336,6.8682 35.26426,14.7666 8.28998,6.87 10.63676,13.3058 -0.90251,17.2939 -27.00446,9.3332 -55.6764,-16.1175 -81.38311,4.2192 -4.23505,3.3505 -7.80881,7.1972 -10.85107,11.6458 32.13158,-4.3266 61.06576,15.4 93.13846,8.4439 13.37011,-2.8997 26.30655,-10.3565 35.6369,-20.3528 2.22227,-2.3808 8.48329,-7.7923 7.45481,-11.448 -0.92696,-3.2947 -6.16213,-6.2244 -8.72998,-8.1737 -8.82043,-6.6958 -18.74151,-13.8049 -28.93621,-18.2034 v -0.9042 c 10.84572,-0.4658 23.3366,-1.0409 33.4575,-5.3126 23.58226,-9.9533 36.78438,-37.3482 46.1171,-59.794 -11.73743,-7.9118 -29.15706,-15.5029 -44.53995,-16.077 z m -441.95016,81.1836 3.61703,0.9041 h -3.61703 z m 283.52157,67.8986 c -7.29274,0.3885 -14.67317,2.6131 -22.19138,7.6279 -4.51348,3.0107 -8.13827,6.5894 -10.8511,11.282 9.88788,-0.4244 18.37862,-0.899 28.03198,2.2784 23.18886,7.6326 45.2093,28.2122 71.43628,21.4513 6.53081,-1.6835 12.50747,-5.1142 18.08512,-8.8147 4.8894,-3.2438 9.9773,-6.6116 13.56386,-11.2979 -11.19541,-1.8944 -21.88761,1.0833 -33.45752,-2.1953 -21.65031,-6.1351 -42.73905,-21.4969 -64.61724,-20.3317 z m -158.73414,0.839 c -20.03643,0.4921 -37.47849,12.1618 -56.06391,18.0463 -13.40082,4.2429 -26.0606,3.6435 -39.78731,3.6417 3.50735,4.9378 8.48273,8.7624 13.56386,12.0273 41.52404,26.6815 76.57195,-15.6444 118.45762,-15.6444 -4.05165,-14.435 -23.43669,-18.3837 -36.17026,-18.0709 z" /><path
         d="m 850.43009,1872.9371 h 19.98919 v -162.7289 h -19.98919 v -16.8923 h 64.7537 l 47.29833,102.4798 h 1.12621 l 47.29837,-102.4798 h 64.1906 v 16.8923 h -19.9892 v 162.7289 h 19.9892 v 16.8923 h -79.39372 v -16.8923 h 19.98922 v -146.6812 h -1.4076 l -15.2031,36.8814 -45.89073,95.7229 -45.89065,-95.7229 -15.20303,-36.8814 h -1.40768 v 146.6812 h 19.98917 v 16.8923 h -60.24909 z m 337.84551,20.2707 q -20.2707,0 -36.3184,-7.6016 -15.7661,-7.6015 -27.0276,-21.1153 -10.9799,-13.5138 -16.8923,-32.0952 -5.6307,-18.5816 -5.6307,-40.5415 0,-24.7753 6.4754,-43.6384 6.7569,-19.1446 18.0184,-32.0953 11.2615,-12.9507 26.4645,-19.4262 15.203,-6.7568 32.0954,-6.7568 18.2999,0 28.7168,6.4753 10.4169,6.1939 14.3584,13.5139 h 1.4077 v -16.6108 h 28.9983 v 61.0937 h -28.9983 v -13.2322 q 0,-14.3585 -10.4168,-23.0862 -10.1354,-8.7276 -28.717,-8.7276 -21.9599,0 -33.5029,14.3585 -11.5431,14.3583 -11.5431,40.5414 v 50.3952 q 0,27.5907 13.5139,41.3861 13.7953,13.5138 36.3184,13.5138 18.5814,0 31.2506,-9.5723 12.9508,-9.8538 19.4261,-25.9014 l 14.3585,8.1645 q -3.3786,10.1354 -9.8539,19.4261 -6.1938,9.0093 -15.4846,16.0477 -9.0092,7.0384 -20.8338,11.2616 -11.8246,4.223 -26.183,4.223 z m 98.2566,-20.2707 h 19.9892 v -162.7289 h -19.9892 v -16.8923 h 67.569 l 87.8398,145.2735 h 1.4077 v -128.3812 h -19.9892 v -16.8923 h 60.2491 v 16.8923 h -19.9892 v 179.6212 h -34.629 l -100.7907,-165.2627 h -1.4076 v 148.3704 h 19.9892 v 16.8923 h -60.2491 z"
         id="text25"
         style="font-weight:600;font-size:354.414px;font-family:'IBM Plex Serif';-inkscape-font-specification:'IBM Plex Serif, Semi-Bold';fill:url(#linearGradient26);stroke-width:75.412"
         aria-label="MCN" /></g></g></svg>
